inDegrees=no
num_controls=7
num_derivatives=13
num_iterations=46
num_multipliers=7
num_parameters=0
num_slacks=7
num_states=26
objective=0.432955
objective_accelerations=0.050090
objective_balance=0.007141
objective_effort=0.032185
objective_height=0.342423
objective_ligament=0.001117
solver_duration=598.776574
status=Solve_Succeeded
success=true
DataType=double
version=3
OpenSimVersion=4.5
endheader
time	/jointset/ground_pelvis/pelvis_tilt/value	/jointset/ground_pelvis/pelvis_tx/value	/jointset/ground_pelvis/pelvis_ty/value	/jointset/hip_l/hip_flexion_l/value	/jointset/hip_l/hip_adduction_l/value	/jointset/hip_l/hip_rotation_l/value	/jointset/back/lumbar_extension/value	/jointset/patellofemoral_l/patellar_flexion_l/value	/jointset/knee_l/knee_flexion_l/value	/jointset/knee_l/knee_adduction_l/value	/jointset/knee_l/knee_rotation_l/value	/jointset/ankle_l/ankle_angle_l/value	/jointset/subtalar_l/subtalar_angle_l/value	/jointset/ground_pelvis/pelvis_tilt/speed	/jointset/ground_pelvis/pelvis_tx/speed	/jointset/ground_pelvis/pelvis_ty/speed	/jointset/hip_l/hip_flexion_l/speed	/jointset/hip_l/hip_adduction_l/speed	/jointset/hip_l/hip_rotation_l/speed	/jointset/back/lumbar_extension/speed	/jointset/patellofemoral_l/patellar_flexion_l/speed	/jointset/knee_l/knee_flexion_l/speed	/jointset/knee_l/knee_adduction_l/speed	/jointset/knee_l/knee_rotation_l/speed	/jointset/ankle_l/ankle_angle_l/speed	/jointset/subtalar_l/subtalar_angle_l/speed	/forceset/tau_hip_flexion_l	/forceset/tau_hip_adduction_l	/forceset/tau_hip_rotation_l	/forceset/tau_knee_flexion_l	/forceset/tau_ankle_angle_l	/forceset/tau_subtalar_angle_l	/forceset/tau_lumbar_extension	lambda_cid13_p0	lambda_cid13_p1	lambda_cid13_p2	lambda_cid13_p3	lambda_cid13_p4	lambda_cid13_p5	lambda_cid14_p0	/jointset/ground_pelvis/pelvis_tilt/accel	/jointset/ground_pelvis/pelvis_tx/accel	/jointset/ground_pelvis/pelvis_ty/accel	/jointset/hip_l/hip_flexion_l/accel	/jointset/hip_l/hip_adduction_l/accel	/jointset/hip_l/hip_rotation_l/accel	/jointset/back/lumbar_extension/accel	/jointset/patellofemoral_l/patellar_flexion_l/accel	/jointset/knee_l/knee_flexion_l/accel	/jointset/knee_l/knee_adduction_l/accel	/jointset/knee_l/knee_rotation_l/accel	/jointset/ankle_l/ankle_angle_l/accel	/jointset/subtalar_l/subtalar_angle_l/accel	gamma_cid13_p0	gamma_cid13_p1	gamma_cid13_p2	gamma_cid13_p3	gamma_cid13_p4	gamma_cid13_p5	gamma_cid14_p0
0.5	-0.342222204321928	-0.03379581264658547	0.7683218740431518	1.166642052738945	-0.3061889002926446	-0.0009195730447309035	-0.3212189582009558	0.7943606910215267	0.794360691021576	-0.1726510564760835	0.1705449424066892	0.1489470026523899	-0.02365957757006328	-0.4560162303010157	-0.1770419344255825	-0.5011774949466626	2.135027848813998	0.004721781929844369	0.7011302212556012	-0.6378326553936338	2.066145647703318	2.066145647703399	-0.007228584793382268	0.02866984344459834	0.509130455390407	0.08619533289891661	-0.1927262965676699	0.06921178949590982	-0.02604010735750096	-0.2499967428360234	0.1112790257738603	-0.004580499315679619	0.1895471824729753	-3.657547318253645	1.525924388733688	0.6151079841851891	-1.422047201451377	-605.2177914864175	-17.00489264410092	-21.94600168183283	0.5354130776351178	0.5634242448953536	-0.4139590478588357	-1.351281563755264	0.7236154076606501	-0.5066179284021564	1.672640805521765	-1.30631557148128	-1.306315571481254	0.1808540232958789	0.00276834813661135	-0.5025847516604095	0.7370183934164908	-4.349029181001762e-07	-5.81889914174429e-07	2.387261149116336e-06	2.509239270791407e-07	-5.02631245966194e-07	-3.16269518344238e-07	-4.036085643629073e-07
0.51	-0.3467545939037782	-0.03553781742543796	0.7632904960327545	1.187920841186666	-0.3061076789327976	0.006070953278410479	-0.3275130905841891	0.8149527301691771	0.8149527301692129	-0.1727211933566222	0.1708292155089591	0.1540115915585891	-0.02276332909045541	-0.4504055455543593	-0.1713412895581123	-0.5049893306682173	2.120423673125071	0.01143400846511497	0.6972553877134168	-0.6208933809606666	2.051917875643423	2.051917875643549	-0.007151265365508963	0.02796593175609904	0.5036798589369147	0.0929532392454267	-0.1994012647351542	0.06931724194054752	-0.02602964372032646	-0.2526171329213831	0.1095905254381459	-0.003954717222719227	0.1951187157024408	-4.426265921713708	1.559525855525684	0.4146766668900068	-1.126117427357695	-609.7328410648483	-16.90876603183392	-20.69016668026534	0.5822762517708254	0.5760953169108045	-0.3485761127641568	-1.56096367791781	0.6314535585308976	-0.2861982698844971	1.719636805944337	-1.532576289550942	-1.532576289544323	-0.1316839724345698	-0.1402593003365495	-0.5824120212182584	0.6298110416376518	-3.99477647575489e-07	-5.030639811362529e-07	2.284451831685453e-06	2.412721476575701e-07	-4.600684228212202e-07	-2.275735561878e-07	-3.805545051856006e-07
0.52	-0.3512292006224528	-0.03722227361376813	0.7582242436094504	1.209044392256196	-0.3059620498511817	0.01303107482557368	-0.3336348170143442	0.8353921779429644	0.8353921779429961	-0.1728011280178766	0.1710997918197555	0.1590184515144481	-0.02180257469010857	-0.4444596576640921	-0.1655322163211214	-0.5081523775281218	2.103980373177911	0.01760332628321214	0.695049266060913	-0.6033514647772928	2.035627372931235	2.035627372931404	-0.009188140936345918	0.0259304851478653	0.4975846653224346	0.09909651704670938	-0.2060762329026689	0.06942269438516967	-0.02601918008297952	-0.2552375230067697	0.1079020251024265	-0.003328935129777557	0.2006902489318767	-5.201123127581878	1.590014673335366	0.2195260802164719	-0.8432637299690002	-614.3472593718724	-16.89992535830664	-19.43250042144933	0.6024537063571587	0.5851099187995795	-0.2842012755287871	-1.71910641540176	0.615033664225955	-0.1728755504660795	1.793169155603018	-1.718861701939877	-1.718861701939958	-0.2419849764461926	-0.2635386358102413	-0.6315041838577974	0.6140926843710222	-3.476793913387663e-07	-5.624747358417155e-07	2.18926521691435e-06	2.141328275256575e-07	-4.122404680796684e-07	-1.529310248973797e-07	-3.64894534015476e-07
0.53	-0.3556427936258954	-0.03884825499629648	0.7531296520254971	1.229995016436946	-0.3057558650696913	0.01996874061967603	-0.3395785502804017	0.8556599773732184	0.8556599773732749	-0.1729036519043498	0.1713489765239073	0.1639617456077776	-0.02078157659159548	-0.4382081036548332	-0.1596607818453618	-0.5106512428393952	2.08588412735869	0.02368218752725185	0.6918951203281622	-0.5853450041384763	2.017718267453142	2.017718267453225	-0.0108280418879372	0.02419247124275064	0.4910160011736587	0.1051689908036965	-0.2124168071792852	0.06953410151297711	-0.0261040842289765	-0.2579967903374445	0.106315176034366	-0.002875493712628717	0.2059162552430625	-5.948596663918671	1.695040366408554	0.007368832369646853	-0.4919976100226814	-618.9018465611806	-16.82137808761305	-18.17561807073061	0.6441057505185217	0.5886919387045252	-0.2156021191685895	-1.893969946782366	0.611342193965662	-0.4753347264887929	1.811912162260763	-1.859000486853878	-1.859000486866628	-0.05173618270228025	-0.08646444352439736	-0.6782566522356028	0.6135504190672572	-3.171905818095665e-07	-4.732303026297104e-07	2.076675251510603e-06	2.068090257730171e-07	-3.752640967283202e-07	-8.110919935475788e-08	-3.406219139200778e-07
0.54	-0.3599923511887932	-0.04041541568871919	0.7480134971963835	1.250756860903173	-0.3054874857078628	0.02685713482808072	-0.3453407134112261	0.8757422726454718	0.8757422726455553	-0.1730079235059833	0.1715892747538734	0.1688376112352493	-0.01969790861597156	-0.4316525695532318	-0.1537680782999922	-0.5124650265602888	2.066224430275478	0.03004224235020181	0.6851949489230413	-0.5670374377300669	1.998526541330658	1.998526541330657	-0.009537683967000722	0.02415319031114445	0.4840989721509554	0.111630492468869	-0.2187573814559321	0.06964550864076097	-0.02618898837489127	-0.2607560576681319	0.1047283269663003	-0.002422052295508419	0.2111422615542186	-6.703095393058498	1.797616489726093	-0.2001929798539121	-0.1465849357711442	-623.5636468589817	-16.82242351250427	-16.92272332323922	0.6632497248255569	0.5893637327217046	-0.1471849574528091	-2.031796668200323	0.6712723800079877	-0.8820806849401506	1.853390309521505	-1.975385830817727	-1.975385830817746	0.3440667980593428	0.07620795889149215	-0.701177158643091	0.6918982660081142	-3.102781814035838e-07	-2.195162998068879e-07	1.944830515194144e-06	2.214087762697845e-07	-3.502937325320911e-07	-1.24081546394877e-08	-3.068204056520363e-07
0.55	-0.3642749423274032	-0.04192353537468342	0.7428825654877205	1.271314350237421	-0.3051555121898771	0.03367025388993628	-0.350918184235193	0.8956253514079551	0.8956253514079893	-0.1730930052335729	0.1718317238113208	0.1736423104832069	-0.01854937707558362	-0.4248178444643403	-0.1478508964546825	-0.5136123392118217	2.045006964028926	0.03624414192544577	0.6777839958831369	-0.5484026939994496	1.977789249975913	1.977789249975941	-0.007902128743483408	0.02410199176791644	0.476752476274968	0.1179505778485082	-0.2248719066526113	0.06931410941095754	-0.02607015750764724	-0.2635654077013461	0.1033840376744274	-0.002095565883493588	0.2161805580508657	-7.366573986970719	1.941325382912591	-0.4165220528793874	0.1442114912803445	-627.9432672128285	-16.76845261357134	-15.67835001659258	0.7007275587796664	0.5936856509713873	-0.08222535958693226	-2.20672968379834	0.5781291760454527	-0.6175623091741002	1.876621364288326	-2.16783728972776	-2.167837289723074	0.009822163689855055	-0.08134996218602737	-0.7646310064514392	0.5830716685326005	-2.855625616502374e-07	-1.181755988575454e-07	1.824305412140719e-06	2.179837172703355e-07	-3.235059320836179e-07	4.905075767599944e-08	-2.812577587905979e-07
0.5600000000000001	-0.3684877574835673	-0.04337232519408738	0.7377434164644261	1.291651663293006	-0.3047648235901839	0.04041987148226418	-0.3563076866299669	0.9152920699565118	0.9152920699564988	-0.1731744269530857	0.1720665476430782	0.1783708957315286	-0.01734144308248106	-0.417697373061084	-0.1419021049879358	-0.5141084894866832	2.022189174545761	0.04178525869119622	0.6724946550168959	-0.5294437518905699	1.955254498544174	1.955254498544233	-0.00880568235228656	0.02262814517444646	0.468876172223981	0.1235109830117777	-0.2309864318493136	0.06898271018117313	-0.02595132664057406	-0.2663747577345427	0.1020397483825629	-0.001769079471454747	0.2212188545474811	-8.037095135654349	2.082867285785943	-0.6286209742834971	0.4270798333620655	-632.4303024272896	-16.78647004467816	-14.44619152330035	0.7203989876984292	0.5956856570092415	-0.01695248211850979	-2.351861315523137	0.5391158181092356	-0.4577582502074379	1.918229985173964	-2.334877846216252	-2.334877846216285	-0.1637549684047749	-0.2083216511568629	-0.807138793642818	0.5399622227342284	-2.394830786800553e-07	-1.996828601563726e-07	1.717363869002937e-06	1.929288868754277e-07	-2.945372081324514e-07	1.018191111117472e-07	-2.655817456170833e-07
0.5700000000000001	-0.3726280621806116	-0.04476163327528047	0.7326026448501359	1.311753219659884	-0.304320530673793	0.04711837449879117	-0.3615063209637012	0.9347255380747697	0.93472553807475	-0.1732690137278218	0.1722846378451889	0.1830184640152178	-0.01607992975546705	-0.4103242006694521	-0.1359698614596449	-0.5139284370034729	1.997883794113817	0.04709759846798638	0.6666849869808492	-0.5102658560479822	1.931229837714807	1.931229837714876	-0.009669858527482315	0.02120999970158506	0.4605817799586858	0.12882674372419	-0.236929573286891	0.06878734100685858	-0.02591248692650183	-0.2691366701956103	0.1004179618666008	-0.001535360229178645	0.2260308564171528	-8.806946690717334	2.286634903585603	-0.855833082327447	0.9043743689217337	-636.942331329725	-16.74798945451983	-13.22885573060748	0.7516666810388239	0.5904769211005119	0.05303793861653253	-2.505643814069848	0.5307174813752508	-0.7209499917686315	1.920158204885924	-2.467601967399021	-2.467601967397419	0.01851295948899808	-0.0758842085032916	-0.8489249549200821	0.5324856562182125	-2.092625188481329e-07	-1.387576047644508e-07	1.606673909804765e-06	1.839080766864488e-07	-2.660646785247657e-07	1.500598438357726e-07	-2.421861367430127e-07
